<svg xmlns="http://www.w3.org/2000/svg" viewBox="0 0 320 200" role="img" aria-label="Scientific calculator">
  <rect width="320" height="200" rx="18" fill="#f8fafc"/>
  <g transform="translate(92 12)">
    <path d="M10 2C42-1 92-1 124 2c7 1 11 6 11 13v144c0 9-5 14-14 15-30 3-78 3-108 0-9-1-14-6-14-15V15C-1 8 3 3 10 2Z" fill="#343b72"/>
    <path d="M0 18c4 5 7 15 7 28v92c0 12-3 22-7 27-2-2-4-6-4-11V28c0-5 2-8 4-10Z" fill="#20264d"/>
    <path d="M110 18c-4 5-7 15-7 28v92c0 12 3 22 7 27 2-2 4-6 4-11V28c0-5-2-8-4-10Z" fill="#161d3d"/>
    <rect x="18" y="22" width="100" height="35" rx="2" fill="#141a2d"/>
    <rect x="22" y="25" width="92" height="27" rx="1" fill="#dff7ea"/>
    <path d="M23 54h91l-8 8H15l8-8Z" fill="#20264d"/>
    <g fill="#c7d0df">
      <rect x="17" y="74" width="20" height="12" rx="6"/>
      <rect x="98" y="74" width="20" height="12" rx="6"/>
      <rect x="51" y="65" width="35" height="35" rx="18"/>
    </g>
    <path d="M69 72v20M59 82h20" stroke="#9aa7bc" stroke-width="2" stroke-linecap="round"/>
    <path d="M61 73l-4 4h8M76 91l4-4h-8" fill="#9aa7bc"/>
    <g fill="#10172a">
      <rect x="18" y="102" width="20" height="13" rx="3"/>
      <rect x="45" y="102" width="20" height="13" rx="3"/>
      <rect x="72" y="102" width="20" height="13" rx="3"/>
      <rect x="99" y="102" width="20" height="13" rx="3"/>
      <rect x="18" y="125" width="20" height="13" rx="3"/>
      <rect x="45" y="125" width="20" height="13" rx="3"/>
      <rect x="72" y="125" width="20" height="13" rx="3"/>
      <rect x="99" y="125" width="20" height="13" rx="3"/>
    </g>
    <g fill="#aeb9cc">
      <rect x="18" y="148" width="24" height="15" rx="4"/>
      <rect x="48" y="148" width="24" height="15" rx="4"/>
      <rect x="78" y="148" width="24" height="15" rx="4"/>
    </g>
    <g fill="#bf6fae">
      <rect x="108" y="148" width="24" height="15" rx="4"/>
      <rect x="78" y="125" width="24" height="15" rx="4"/>
    </g>
  </g>
</svg>
